<svg width="263" height="86" viewBox="0 0 263 86" fill="none" xmlns="http://www.w3.org/2000/svg">
<path d="M64.5266 40.4555C63.2548 40.4555 62.2238 39.4245 62.2238 38.1527C62.2238 36.8809 63.2548 35.8499 64.5266 35.8499H73.7377C75.0095 35.8499 76.0405 36.8809 76.0405 38.1527C76.0405 39.4245 75.0095 40.4555 73.7377 40.4555H64.5266Z" fill="#EB6148"/>
<path d="M52.3713 13.2718C51.0995 13.2718 50.0685 12.2408 50.0685 10.969C50.0685 9.69723 51.0995 8.66624 52.3713 8.66624H71.945C73.2168 8.66624 74.2478 9.69723 74.2478 10.969C74.2478 12.2408 73.2168 13.2718 71.945 13.2718H52.3713Z" fill="#EB6148"/>
<path d="M68.4639 9.74599C70.3949 8.09037 73.3024 8.31361 74.958 10.2446C76.6137 12.1756 76.3904 15.0831 74.4594 16.7388L48.0174 39.41C46.0864 41.0656 43.1788 40.8424 41.5232 38.9114C39.8676 36.9804 40.0908 34.0728 42.0218 32.4172L68.4639 9.74599Z" fill="#EB6148"/>
<path d="M247.657 27.8041C247.666 26.3729 248.998 25.3181 250.393 25.6373C251.41 25.8701 252.132 26.775 252.132 27.8184V46.0922C252.132 47.4045 251.034 48.4497 249.723 48.3852C248.495 48.3247 247.532 47.3072 247.54 46.0775L247.657 27.8041Z" fill="white"/>
<path d="M162.163 30.3501C162.723 25.9672 161.829 21.8839 159.594 18.0725C157.359 14.2611 153.921 11.2931 149.816 9.62907C145.71 7.96501 141.165 7.6979 136.885 8.8692C132.606 10.0405 128.833 12.5847 126.15 16.1071C123.467 19.6294 122.025 23.933 122.047 28.35C122.07 32.7671 123.556 37.0506 126.274 40.5361C128.993 44.0215 132.792 46.5139 137.083 47.6267C141.374 48.7394 145.075 48.8153 149.164 47.0953L142.597 31.1711C141.99 31.31 141.97 31.2852 141.362 31.1274C140.753 30.9697 140.322 30.4532 139.936 29.9592C139.551 29.4651 139.34 28.8579 139.337 28.2318C139.334 27.6057 139.538 26.9957 139.919 26.4964C140.299 25.9971 140.834 25.6365 141.44 25.4705C142.047 25.3044 142.691 25.3423 143.273 25.5782C143.855 25.8141 144.342 26.2348 144.659 26.775C144.976 27.3153 145.105 27.9449 145.025 28.5661L162.163 30.3501Z" fill="white"/>
<path d="M157.832 28.3544C157.832 36.939 150.873 43.8982 142.288 43.8982C133.704 43.8982 126.744 36.939 126.744 28.3544C126.744 19.7698 133.704 12.8106 142.288 12.8106C150.873 12.8106 157.832 19.7698 157.832 28.3544Z" fill="#172553"/>
<path d="M139.777 30.243C139.777 28.9712 140.808 27.9402 142.079 27.9402H160.006C161.173 27.9402 162.135 28.8562 162.191 30.0217C162.135 31.4316 160.975 32.5458 159.564 32.5458H142.079C140.808 32.5458 139.777 31.5148 139.777 30.243Z" fill="white"/>
<path d="M196.236 10.4201C192.458 8.1297 189.26 7.70114 184.87 8.19711C180.479 8.69308 176.372 10.6299 173.184 13.7072C169.997 16.7844 167.908 20.8299 167.242 25.2161C166.576 29.6023 167.37 34.0838 169.5 37.9654C171.631 41.847 174.978 44.9115 179.025 46.6836C183.071 48.4557 187.589 48.8362 191.877 47.766C196.166 46.6959 199.986 44.235 202.744 40.7652C205.503 37.2953 207.145 33.9681 207.232 29.5332L189.943 29.0469C189.824 29.658 189.792 29.6668 189.401 30.1587C189.011 30.6505 188.363 30.8354 187.755 30.9871C187.147 31.1388 186.507 31.0849 185.934 30.8337C185.36 30.5825 184.885 30.1481 184.583 29.5979C184.281 29.0477 184.169 28.4124 184.263 27.7907C184.358 27.169 184.654 26.5955 185.106 26.1593C185.557 25.7232 186.14 25.4486 186.762 25.3783C187.384 25.308 188.012 25.4459 188.548 25.7705L196.236 10.4201Z" fill="white"/>
<path d="M193.971 14.3513C201.675 18.1379 204.851 27.4532 201.064 35.1576C197.278 42.8619 187.962 46.0378 180.258 42.2511C172.554 38.4645 169.378 29.1492 173.165 21.4449C176.951 13.7405 186.266 10.5646 193.971 14.3513Z" fill="#172553"/>
<path d="M89.3795 46.6432C93.4321 48.4036 97.9507 48.7708 102.234 47.6879C106.518 46.6049 110.327 44.1323 113.071 40.6537C115.814 37.1751 117.339 32.885 117.408 28.4491C117.477 24.0132 116.087 19.6794 113.453 16.1203C110.819 12.5611 107.089 9.97557 102.841 8.76477C98.593 7.55398 94.065 7.78565 89.9594 9.42383C85.8539 11.062 82.4003 14.0151 80.1347 17.825C77.869 21.6348 76.7288 24.1483 77.2398 28.5546L94.3981 27.7117C94.4341 27.09 94.4637 27.0771 94.7849 26.5371C95.1061 25.9971 95.7225 25.7266 96.3044 25.4944C96.8864 25.2622 97.5282 25.2294 98.1303 25.401C98.7325 25.5726 99.2612 25.9391 99.6346 26.4436C100.008 26.9481 100.205 27.5624 100.195 28.1912C100.185 28.82 99.9693 29.4281 99.5804 29.9212C99.1915 30.4143 98.6516 30.7648 98.0444 30.9183C97.4372 31.0718 96.7966 31.0197 96.2222 30.7702L89.3795 46.6432Z" fill="white"/>
<path d="M252.129 28.0941C252.115 23.6757 250.638 19.3896 247.926 15.9009C245.215 12.4123 241.421 9.91605 237.134 8.79957C232.846 7.68309 228.305 8.00878 224.215 9.72611C220.124 11.4434 216.713 14.4564 214.51 18.2975C212.308 22.1386 211.437 26.593 212.033 30.9697C212.629 35.3464 214.659 39.4006 217.808 42.5032C220.956 45.6059 225.047 47.5836 229.446 48.1294C233.845 48.6752 237.525 48.2696 241.355 46.0329L232.776 31.0968C232.192 31.3134 232.168 31.2915 231.545 31.2141C230.921 31.1367 230.426 30.6807 229.98 30.2409C229.533 29.8011 229.246 29.2265 229.161 28.6061C229.077 27.9857 229.2 27.3543 229.512 26.8098C229.824 26.2654 230.308 25.8383 230.888 25.5948C231.468 25.3514 232.111 25.3053 232.719 25.4635C233.327 25.6218 233.865 25.9756 234.249 26.4701C234.633 26.9646 234.843 27.5722 234.845 28.1985L252.129 28.0941Z" fill="white"/>
<path d="M247.641 28.3544C247.641 36.939 240.682 43.8982 232.097 43.8982C223.512 43.8982 216.553 36.939 216.553 28.3544C216.553 19.7698 223.512 12.8106 232.097 12.8106C240.682 12.8106 247.641 19.7698 247.641 28.3544Z" fill="#172553"/>
<path d="M89.1108 41.4532C81.7888 36.9718 79.486 27.4032 83.9675 20.0811C88.4489 12.7591 98.0175 10.4563 105.34 14.9378C112.662 19.4192 114.964 28.9878 110.483 36.3099C106.001 43.6319 96.4329 45.9347 89.1108 41.4532Z" fill="#172553"/>
<path d="M259.102 0C260.374 0 261.405 1.03099 261.405 2.30279V46.0557C261.405 47.3275 260.374 48.3585 259.102 48.3585C257.83 48.3585 256.799 47.3275 256.799 46.0557V2.30279C256.799 1.03099 257.83 0 259.102 0Z" fill="white"/>
<path d="M204.929 0C206.201 0 207.232 1.03099 207.232 2.30279V29.4757C207.232 30.7475 206.201 31.7785 204.929 31.7785C203.658 31.7785 202.627 30.7475 202.627 29.4757V2.30279C202.627 1.03099 203.658 0 204.929 0Z" fill="white"/>
<path d="M145.835 46.0337C145.357 44.871 145.923 43.542 147.092 43.0806L150.067 41.9067C151.251 41.4395 152.587 42.0467 153.013 43.2461C153.419 44.3871 152.848 45.6447 151.723 46.0913C150.693 46.5 149.777 46.8636 148.751 47.2709C147.604 47.7259 146.305 47.1745 145.835 46.0337Z" fill="white"/>
<path d="M86.5112 43.3323C86.9057 42.1387 88.2006 41.4987 89.3884 41.9103L92.4103 42.9575C93.6131 43.3743 94.2309 44.705 93.7731 45.8928C93.3376 47.0227 92.0856 47.6052 90.9406 47.211C89.893 46.8502 88.961 46.5293 87.9172 46.1699C86.7509 45.7683 86.1241 44.5035 86.5112 43.3323Z" fill="white"/>
<path d="M236.318 45.9426C235.793 44.7997 236.305 43.4484 237.456 42.9407L240.069 41.7879C241.231 41.275 242.587 41.8255 243.063 43.0034C243.518 44.1284 242.999 45.4113 241.89 45.9034L239.279 47.0616C238.152 47.5617 236.832 47.063 236.318 45.9426Z" fill="white"/>
<path d="M77.1246 26.3669C77.1246 25.0951 78.1556 24.0641 79.4274 24.0641C80.6992 24.0641 81.7302 25.0951 81.7302 26.3669V55.1518C81.7302 56.4236 80.6992 57.4545 79.4274 57.4545C78.1556 57.4545 77.1246 56.4236 77.1246 55.1518V26.3669Z" fill="white"/>
<path d="M191.516 10.5273C192.107 9.40122 193.499 8.96763 194.625 9.55881L196.884 10.7444C198.01 11.3356 198.443 12.7277 197.852 13.8537C197.261 14.9797 195.869 15.4133 194.743 14.8222L192.484 13.6366C191.358 13.0454 190.925 11.6533 191.516 10.5273Z" fill="white"/>
<path d="M40.2224 30.9972C40.8358 26.6216 39.8584 22.61 37.6701 18.7715C35.4818 14.933 32.0811 11.9232 27.9959 10.209C23.9106 8.49483 19.3691 8.17211 15.0761 9.29094C10.783 10.4098 6.97841 12.9076 4.25257 16.3968C1.52673 19.8861 0.0320771 24.1717 0.000510459 28.5887C-0.0310562 33.0057 1.40223 37.3071 4.07799 40.8255C6.75374 44.344 10.5224 46.8828 14.7991 48.0479C19.0758 49.2131 22.776 49.3343 26.8854 47.6644L20.5146 31.6611C19.9059 31.7926 19.8855 31.7675 19.2793 31.6023C18.6731 31.4371 18.2478 30.9154 17.8685 30.4167C17.4892 29.918 17.2861 29.3082 17.2905 28.6821C17.295 28.056 17.5069 27.4486 17.8933 26.954C18.2796 26.4594 18.8189 26.1053 19.4275 25.9467C20.036 25.7881 20.6797 25.8339 21.2588 26.0769C21.8379 26.3198 22.3199 26.7465 22.6301 27.2906C22.9403 27.8347 23.0613 28.4658 22.9744 29.086L40.2224 30.9972Z" fill="white"/>
<path d="M35.7845 28.8405C35.7845 37.4251 28.8253 44.3843 20.2407 44.3843C11.6561 44.3843 4.69689 37.4251 4.69689 28.8405C4.69689 20.2559 11.6561 13.2967 20.2407 13.2967C28.8253 13.2967 35.7845 20.2559 35.7845 28.8405Z" fill="#172553"/>
<path d="M23.0339 46.7488C22.5772 45.5787 23.1653 44.2611 24.3412 43.8197L28.0928 42.4112C29.2898 41.9619 30.6202 42.599 31.0204 43.8134C31.3977 44.9582 30.8058 46.1969 29.6781 46.6226L25.929 48.0377C24.7738 48.4737 23.4829 47.899 23.0339 46.7488Z" fill="white"/>
<path d="M19.5053 33.1957C18.2335 33.1957 17.2025 32.1647 17.2025 30.8929C17.2025 29.6211 18.2335 28.5901 19.5053 28.5901H37.9276C39.1994 28.5901 40.2304 29.6211 40.2304 30.8929C40.2304 32.1647 39.1994 33.1957 37.9276 33.1957H19.5053Z" fill="white"/>
<path d="M120.253 82.0449C119.949 82.0449 119.701 81.9489 119.509 81.7569C119.317 81.5649 119.221 81.3169 119.221 81.0129V64.3329C119.221 64.0289 119.317 63.7809 119.509 63.5889C119.701 63.3969 119.949 63.3009 120.253 63.3009H124.693C125.861 63.3009 126.901 63.5489 127.813 64.0449C128.741 64.5409 129.461 65.2289 129.973 66.1089C130.501 66.9729 130.765 67.9809 130.765 69.1329C130.765 70.2209 130.501 71.1889 129.973 72.0369C129.461 72.8849 128.741 73.5489 127.813 74.0289C126.901 74.5089 125.861 74.7489 124.693 74.7489H121.285V81.0129C121.285 81.3169 121.189 81.5649 120.997 81.7569C120.805 81.9489 120.557 82.0449 120.253 82.0449ZM130.261 82.0449C130.053 82.0449 129.877 82.0049 129.733 81.9249C129.589 81.8289 129.469 81.6929 129.373 81.5169L124.837 74.2929L126.877 73.7649L131.077 80.4609C131.333 80.8609 131.373 81.2289 131.197 81.5649C131.037 81.8849 130.725 82.0449 130.261 82.0449ZM121.285 72.7809H124.693C125.477 72.7809 126.173 72.6289 126.781 72.3249C127.405 72.0049 127.893 71.5729 128.245 71.0289C128.597 70.4689 128.773 69.8369 128.773 69.1329C128.773 68.3649 128.597 67.6929 128.245 67.1169C127.893 66.5249 127.405 66.0689 126.781 65.7489C126.173 65.4129 125.477 65.2449 124.693 65.2449H121.285V72.7809ZM137.919 82.0449C137.615 82.0449 137.367 81.9569 137.175 81.7809C136.983 81.5889 136.887 81.3329 136.887 81.0129V69.9489C136.887 69.6289 136.983 69.3809 137.175 69.2049C137.367 69.0129 137.615 68.9169 137.919 68.9169C138.223 68.9169 138.463 69.0129 138.639 69.2049C138.831 69.3809 138.927 69.6289 138.927 69.9489V81.0129C138.927 81.3329 138.831 81.5889 138.639 81.7809C138.463 81.9569 138.223 82.0449 137.919 82.0449ZM137.895 66.5409C137.511 66.5409 137.183 66.4049 136.911 66.1329C136.639 65.8449 136.503 65.5089 136.503 65.1249C136.503 64.7249 136.639 64.3969 136.911 64.1409C137.199 63.8849 137.527 63.7569 137.895 63.7569C138.263 63.7569 138.583 63.8849 138.855 64.1409C139.143 64.3969 139.287 64.7249 139.287 65.1249C139.287 65.5089 139.151 65.8449 138.879 66.1329C138.607 66.4049 138.279 66.5409 137.895 66.5409ZM152.198 82.1649C150.934 82.1649 149.798 81.8769 148.79 81.3009C147.782 80.7089 146.982 79.9089 146.39 78.9009C145.814 77.8929 145.526 76.7489 145.526 75.4689C145.526 74.2049 145.806 73.0689 146.366 72.0609C146.926 71.0529 147.686 70.2609 148.646 69.6849C149.606 69.0929 150.694 68.7969 151.91 68.7969C152.95 68.7969 153.886 69.0209 154.718 69.4689C155.566 69.9009 156.254 70.4769 156.782 71.1969V64.3329C156.782 64.0129 156.878 63.7649 157.07 63.5889C157.278 63.3969 157.526 63.3009 157.814 63.3009C158.118 63.3009 158.366 63.3969 158.558 63.5889C158.75 63.7649 158.846 64.0129 158.846 64.3329V75.5409C158.814 76.7889 158.502 77.9169 157.91 78.9249C157.334 79.9169 156.55 80.7089 155.558 81.3009C154.566 81.8769 153.446 82.1649 152.198 82.1649ZM152.198 80.3409C153.094 80.3409 153.886 80.1249 154.574 79.6929C155.278 79.2609 155.83 78.6849 156.23 77.9649C156.646 77.2289 156.854 76.3969 156.854 75.4689C156.854 74.5569 156.646 73.7329 156.23 72.9969C155.83 72.2609 155.278 71.6849 154.574 71.2689C153.886 70.8369 153.094 70.6209 152.198 70.6209C151.318 70.6209 150.518 70.8369 149.798 71.2689C149.094 71.6849 148.534 72.2609 148.118 72.9969C147.702 73.7329 147.494 74.5569 147.494 75.4689C147.494 76.3969 147.702 77.2289 148.118 77.9649C148.534 78.6849 149.094 79.2609 149.798 79.6929C150.518 80.1249 151.318 80.3409 152.198 80.3409ZM171.831 82.1649C170.519 82.1649 169.359 81.8849 168.351 81.3249C167.343 80.7489 166.551 79.9569 165.975 78.9489C165.399 77.9409 165.111 76.7889 165.111 75.4929C165.111 74.1809 165.383 73.0289 165.927 72.0369C166.471 71.0289 167.215 70.2369 168.159 69.6609C169.119 69.0849 170.223 68.7969 171.471 68.7969C172.687 68.7969 173.743 69.0769 174.639 69.6369C175.551 70.1809 176.247 70.9409 176.727 71.9169C177.223 72.8929 177.471 74.0049 177.471 75.2529C177.471 75.5249 177.383 75.7489 177.207 75.9249C177.031 76.0849 176.807 76.1649 176.535 76.1649H166.503V74.5089H176.655L175.623 75.2289C175.639 74.3489 175.479 73.5569 175.143 72.8529C174.807 72.1489 174.327 71.5969 173.703 71.1969C173.079 70.7969 172.335 70.5969 171.471 70.5969C170.559 70.5969 169.759 70.8049 169.071 71.2209C168.399 71.6369 167.879 72.2209 167.511 72.9729C167.159 73.7089 166.983 74.5489 166.983 75.4929C166.983 76.4369 167.191 77.2769 167.607 78.0129C168.023 78.7489 168.591 79.3249 169.311 79.7409C170.047 80.1569 170.887 80.3649 171.831 80.3649C172.375 80.3649 172.927 80.2689 173.487 80.0769C174.063 79.8849 174.519 79.6449 174.855 79.3569C175.047 79.2129 175.263 79.1409 175.503 79.1409C175.759 79.1249 175.967 79.1889 176.127 79.3329C176.367 79.5409 176.487 79.7649 176.487 80.0049C176.503 80.2449 176.399 80.4529 176.175 80.6289C175.647 81.0769 174.975 81.4449 174.159 81.7329C173.343 82.0209 172.567 82.1649 171.831 82.1649ZM187.868 82.1649C186.876 82.1649 185.908 82.0049 184.964 81.6849C184.036 81.3489 183.292 80.8769 182.732 80.2689C182.54 80.0609 182.46 79.8209 182.492 79.5489C182.524 79.2769 182.652 79.0529 182.876 78.8769C183.132 78.6849 183.388 78.6049 183.644 78.6369C183.916 78.6689 184.14 78.7809 184.316 78.9729C184.668 79.3889 185.156 79.7249 185.78 79.9809C186.404 80.2209 187.092 80.3409 187.844 80.3409C188.948 80.3409 189.756 80.1569 190.268 79.7889C190.796 79.4049 191.068 78.9329 191.084 78.3729C191.084 77.8289 190.82 77.3729 190.292 77.0049C189.78 76.6369 188.9 76.3489 187.652 76.1409C186.036 75.8689 184.852 75.4129 184.1 74.7729C183.364 74.1329 182.996 73.3649 182.996 72.4689C182.996 71.6529 183.22 70.9729 183.668 70.4289C184.116 69.8849 184.7 69.4769 185.42 69.2049C186.156 68.9329 186.948 68.7969 187.796 68.7969C188.868 68.7969 189.796 68.9809 190.58 69.3489C191.364 69.7009 191.996 70.1809 192.476 70.7889C192.652 71.0129 192.724 71.2529 192.692 71.5089C192.676 71.7489 192.548 71.9409 192.308 72.0849C192.1 72.2289 191.852 72.2769 191.564 72.2289C191.292 72.1809 191.06 72.0529 190.868 71.8449C190.468 71.4129 190.012 71.1009 189.5 70.9089C188.988 70.7009 188.404 70.5969 187.748 70.5969C186.916 70.5969 186.244 70.7649 185.732 71.1009C185.22 71.4209 184.964 71.8369 184.964 72.3489C184.964 72.7009 185.052 73.0049 185.228 73.2609C185.42 73.5169 185.748 73.7489 186.212 73.9569C186.692 74.1489 187.372 74.3249 188.252 74.4849C189.452 74.6929 190.396 74.9889 191.084 75.3729C191.788 75.7409 192.284 76.1729 192.572 76.6689C192.876 77.1649 193.028 77.7169 193.028 78.3249C193.028 79.0769 192.812 79.7409 192.38 80.3169C191.964 80.8769 191.372 81.3249 190.604 81.6609C189.836 81.9969 188.924 82.1649 187.868 82.1649ZM199.869 76.8609C199.549 76.8609 199.293 76.7649 199.101 76.5729C198.925 76.3809 198.837 76.1409 198.837 75.8529V64.3329C198.837 64.0129 198.925 63.7649 199.101 63.5889C199.293 63.3969 199.549 63.3009 199.869 63.3009C200.173 63.3009 200.413 63.3969 200.589 63.5889C200.781 63.7649 200.877 64.0129 200.877 64.3329V75.8529C200.877 76.1409 200.781 76.3809 200.589 76.5729C200.413 76.7649 200.173 76.8609 199.869 76.8609ZM210.045 82.0449C209.741 82.0449 209.493 81.9489 209.301 81.7569C209.109 81.5649 209.013 81.3249 209.013 81.0369V74.9169C209.013 73.9409 208.829 73.1489 208.461 72.5409C208.109 71.9169 207.621 71.4529 206.997 71.1489C206.373 70.8289 205.661 70.6689 204.861 70.6689C204.109 70.6689 203.429 70.8209 202.821 71.1249C202.229 71.4129 201.757 71.8129 201.405 72.3249C201.053 72.8209 200.877 73.3969 200.877 74.0529H199.485C199.517 73.0449 199.781 72.1489 200.277 71.3649C200.789 70.5649 201.469 69.9329 202.317 69.4689C203.165 69.0049 204.109 68.7729 205.149 68.7729C206.269 68.7729 207.269 69.0129 208.149 69.4929C209.045 69.9569 209.749 70.6449 210.261 71.5569C210.789 72.4689 211.053 73.5889 211.053 74.9169V81.0369C211.053 81.3249 210.957 81.5649 210.765 81.7569C210.573 81.9489 210.333 82.0449 210.045 82.0449ZM199.869 82.0449C199.549 82.0449 199.293 81.9569 199.101 81.7809C198.925 81.5889 198.837 81.3409 198.837 81.0369V69.9489C198.837 69.6289 198.925 69.3809 199.101 69.2049C199.293 69.0129 199.549 68.9169 199.869 68.9169C200.173 68.9169 200.413 69.0129 200.589 69.2049C200.781 69.3809 200.877 69.6289 200.877 69.9489V81.0369C200.877 81.3409 200.781 81.5889 200.589 81.7809C200.413 81.9569 200.173 82.0449 199.869 82.0449ZM223.454 82.1649C222.238 82.1649 221.15 81.8769 220.19 81.3009C219.23 80.7089 218.47 79.9089 217.91 78.9009C217.35 77.8929 217.07 76.7569 217.07 75.4929C217.07 74.2129 217.358 73.0689 217.934 72.0609C218.526 71.0529 219.326 70.2609 220.334 69.6849C221.342 69.0929 222.478 68.7969 223.742 68.7969C224.99 68.7969 226.11 69.0929 227.102 69.6849C228.11 70.2609 228.902 71.0529 229.478 72.0609C230.07 73.0689 230.374 74.2129 230.39 75.4929L229.574 75.9009C229.574 77.0849 229.302 78.1489 228.758 79.0929C228.23 80.0369 227.502 80.7889 226.574 81.3489C225.662 81.8929 224.622 82.1649 223.454 82.1649ZM223.742 80.3409C224.638 80.3409 225.43 80.1329 226.118 79.7169C226.822 79.2849 227.374 78.7009 227.774 77.9649C228.19 77.2289 228.398 76.4049 228.398 75.4929C228.398 74.5649 228.19 73.7409 227.774 73.0209C227.374 72.2849 226.822 71.7009 226.118 71.2689C225.43 70.8369 224.638 70.6209 223.742 70.6209C222.862 70.6209 222.062 70.8369 221.342 71.2689C220.638 71.7009 220.078 72.2849 219.662 73.0209C219.246 73.7409 219.038 74.5649 219.038 75.4929C219.038 76.4049 219.246 77.2289 219.662 77.9649C220.078 78.7009 220.638 79.2849 221.342 79.7169C222.062 80.1329 222.862 80.3409 223.742 80.3409ZM229.358 82.0449C229.07 82.0449 228.822 81.9569 228.614 81.7809C228.422 81.5889 228.326 81.3409 228.326 81.0369V77.0769L228.782 74.9889L230.39 75.4929V81.0369C230.39 81.3409 230.294 81.5889 230.102 81.7809C229.91 81.9569 229.662 82.0449 229.358 82.0449ZM237.513 73.9089C237.545 72.9329 237.793 72.0609 238.257 71.2929C238.737 70.5089 239.361 69.8929 240.129 69.4449C240.913 68.9969 241.769 68.7729 242.697 68.7729C243.513 68.7729 244.129 68.8929 244.545 69.1329C244.977 69.3729 245.137 69.7009 245.025 70.1169C244.977 70.3409 244.873 70.5009 244.713 70.5969C244.569 70.6929 244.393 70.7409 244.185 70.7409C243.993 70.7409 243.769 70.7249 243.513 70.6929C242.569 70.5809 241.729 70.6449 240.993 70.8849C240.273 71.1089 239.697 71.4849 239.265 72.0129C238.833 72.5409 238.617 73.1729 238.617 73.9089H237.513ZM237.633 82.0449C237.313 82.0449 237.065 81.9569 236.889 81.7809C236.713 81.6049 236.625 81.3569 236.625 81.0369V69.9249C236.625 69.6049 236.713 69.3569 236.889 69.1809C237.065 69.0049 237.313 68.9169 237.633 68.9169C237.953 68.9169 238.193 69.0049 238.353 69.1809C238.529 69.3569 238.617 69.6049 238.617 69.9249V81.0369C238.617 81.3569 238.529 81.6049 238.353 81.7809C238.193 81.9569 237.953 82.0449 237.633 82.0449ZM255.531 82.1649C254.219 82.1649 253.059 81.8849 252.051 81.3249C251.043 80.7489 250.251 79.9569 249.675 78.9489C249.099 77.9409 248.811 76.7889 248.811 75.4929C248.811 74.1809 249.083 73.0289 249.627 72.0369C250.171 71.0289 250.915 70.2369 251.859 69.6609C252.819 69.0849 253.923 68.7969 255.171 68.7969C256.387 68.7969 257.443 69.0769 258.339 69.6369C259.251 70.1809 259.947 70.9409 260.427 71.9169C260.923 72.8929 261.171 74.0049 261.171 75.2529C261.171 75.5249 261.083 75.7489 260.907 75.9249C260.731 76.0849 260.507 76.1649 260.235 76.1649H250.203V74.5089H260.355L259.323 75.2289C259.339 74.3489 259.179 73.5569 258.843 72.8529C258.507 72.1489 258.027 71.5969 257.403 71.1969C256.779 70.7969 256.035 70.5969 255.171 70.5969C254.259 70.5969 253.459 70.8049 252.771 71.2209C252.099 71.6369 251.579 72.2209 251.211 72.9729C250.859 73.7089 250.683 74.5489 250.683 75.4929C250.683 76.4369 250.891 77.2769 251.307 78.0129C251.723 78.7489 252.291 79.3249 253.011 79.7409C253.747 80.1569 254.587 80.3649 255.531 80.3649C256.075 80.3649 256.627 80.2689 257.187 80.0769C257.763 79.8849 258.219 79.6449 258.555 79.3569C258.747 79.2129 258.963 79.1409 259.203 79.1409C259.459 79.1249 259.667 79.1889 259.827 79.3329C260.067 79.5409 260.187 79.7649 260.187 80.0049C260.203 80.2449 260.099 80.4529 259.875 80.6289C259.347 81.0769 258.675 81.4449 257.859 81.7329C257.043 82.0209 256.267 82.1649 255.531 82.1649Z" fill="#EB6148"/>
</svg>
