<svg width="146" height="45" viewBox="0 0 146 45" fill="none" xmlns="http://www.w3.org/2000/svg">
<path d="M35.9386 22.5319C35.2303 22.5319 34.6561 21.9577 34.6561 21.2493C34.6561 20.541 35.2303 19.9668 35.9386 19.9668H41.0689C41.7772 19.9668 42.3514 20.541 42.3514 21.2493C42.3514 21.9577 41.7772 22.5319 41.0689 22.5319H35.9386Z" fill="#EB6148"/>
<path d="M29.1686 7.39163C28.4602 7.39163 27.886 6.81741 27.886 6.10907C27.886 5.40072 28.4602 4.8265 29.1686 4.8265H40.0704C40.7787 4.8265 41.3529 5.40072 41.3529 6.10907C41.3529 6.81741 40.7787 7.39163 40.0704 7.39163H29.1686Z" fill="#EB6148"/>
<path d="M38.1315 5.42788C39.207 4.50576 40.8264 4.6301 41.7485 5.70559C42.6707 6.78108 42.5463 8.40047 41.4708 9.32259L26.7436 21.9496C25.6681 22.8717 24.0487 22.7474 23.1266 21.6719C22.2045 20.5964 22.3288 18.977 23.4043 18.0549L38.1315 5.42788Z" fill="#EB6148"/>
<path d="M137.935 15.4858C137.94 14.6887 138.682 14.1012 139.459 14.279C140.026 14.4086 140.427 14.9126 140.427 15.4938V25.6716C140.427 26.4025 139.816 26.9847 139.086 26.9487C138.402 26.915 137.866 26.3483 137.87 25.6634L137.935 15.4858Z" fill="#223658"/>
<path d="M90.3183 16.9038C90.6301 14.4628 90.1323 12.1885 88.8874 10.0657C87.6425 7.94289 85.7281 6.28984 83.4413 5.36302C81.1544 4.43621 78.623 4.28744 76.2397 4.93981C73.8565 5.59218 71.7546 7.0092 70.2603 8.97102C68.766 10.9328 67.9629 13.3298 67.9754 15.7899C67.9879 18.25 68.8155 20.6358 70.3297 22.5771C71.8438 24.5183 73.9599 25.9065 76.3497 26.5262C78.7394 27.146 80.801 27.1883 83.0782 26.2303L79.4211 17.3611C79.083 17.4385 79.0714 17.4246 78.7327 17.3368C78.394 17.249 78.1535 16.9613 77.9389 16.6861C77.7243 16.411 77.607 16.0728 77.6052 15.7241C77.6034 15.3753 77.7173 15.0356 77.9291 14.7575C78.1409 14.4794 78.4388 14.2786 78.7767 14.1861C79.1145 14.0936 79.4733 14.1147 79.7975 14.2461C80.1216 14.3774 80.393 14.6118 80.5694 14.9127C80.7459 15.2136 80.8176 15.5642 80.7734 15.9103L90.3183 16.9038Z" fill="#223658"/>
<path d="M87.9061 15.7923C87.9061 20.5736 84.0301 24.4496 79.2488 24.4496C74.4675 24.4496 70.5915 20.5736 70.5915 15.7923C70.5915 11.011 74.4675 7.13502 79.2488 7.13502C84.0301 7.13502 87.9061 11.011 87.9061 15.7923Z" fill="white"/>
<path d="M77.85 16.8442C77.85 16.1358 78.4242 15.5616 79.1326 15.5616H89.1172C89.7671 15.5616 90.3025 16.0718 90.3338 16.7209C90.3026 17.5062 89.6569 18.1268 88.8709 18.1268H79.1326C78.4242 18.1268 77.85 17.5525 77.85 16.8442Z" fill="#223658"/>
<path d="M109.296 5.80358C107.191 4.52793 105.41 4.28924 102.965 4.56548C100.52 4.84171 98.2319 5.92047 96.4568 7.63437C94.6816 9.34828 93.5183 11.6015 93.1473 14.0444C92.7763 16.4873 93.2183 18.9834 94.4049 21.1453C95.5914 23.3072 97.4561 25.014 99.7096 26.001C101.963 26.988 104.479 27.1999 106.868 26.6039C109.257 26.0079 111.384 24.6372 112.921 22.7047C114.457 20.7721 115.371 18.9189 115.42 16.4489L105.791 16.178C105.724 16.5184 105.707 16.5233 105.489 16.7972C105.271 17.0712 104.911 17.1742 104.572 17.2587C104.234 17.3431 103.877 17.3131 103.558 17.1732C103.238 17.0333 102.974 16.7914 102.806 16.4849C102.637 16.1785 102.575 15.8247 102.627 15.4784C102.68 15.1321 102.845 14.8127 103.097 14.5698C103.348 14.3268 103.672 14.1739 104.019 14.1348C104.366 14.0956 104.715 14.1724 105.014 14.3532L109.296 5.80358Z" fill="#223658"/>
<path d="M108.034 7.99312C112.325 10.1021 114.094 15.2904 111.985 19.5814C109.876 23.8725 104.688 25.6413 100.397 23.5323C96.1056 21.4233 94.3368 16.235 96.4458 11.944C98.5548 7.65295 103.743 5.8841 108.034 7.99312Z" fill="white"/>
<path d="M49.7807 25.9785C52.0378 26.959 54.5546 27.1635 56.9404 26.5603C59.3262 25.9571 61.4478 24.58 62.9758 22.6426C64.5039 20.7051 65.3531 18.3157 65.3916 15.8451C65.4301 13.3744 64.6557 10.9607 63.1887 8.97838C61.7218 6.99607 59.6441 5.55601 57.2782 4.88165C54.9123 4.20728 52.3903 4.33631 50.1037 5.24872C47.8171 6.16113 45.8936 7.8059 44.6317 9.92783C43.3698 12.0498 42.7347 13.4497 43.0193 15.9038L52.5759 15.4344C52.5959 15.0881 52.6124 15.0809 52.7913 14.7802C52.9702 14.4794 53.3135 14.3288 53.6376 14.1994C53.9617 14.0701 54.3192 14.0518 54.6546 14.1474C54.99 14.243 55.2845 14.4471 55.4924 14.7281C55.7003 15.0091 55.8101 15.3512 55.8046 15.7014C55.7992 16.0516 55.6788 16.3903 55.4622 16.665C55.2456 16.9396 54.9449 17.1348 54.6067 17.2203C54.2685 17.3058 53.9118 17.2768 53.5918 17.1378L49.7807 25.9785Z" fill="#223658"/>
<path d="M140.426 15.6473C140.418 13.1864 139.595 10.7993 138.085 8.85622C136.575 6.91317 134.462 5.52286 132.074 4.90102C129.686 4.27919 127.157 4.46059 124.879 5.41708C122.6 6.37356 120.7 8.05167 119.474 10.191C118.247 12.3303 117.762 14.8113 118.094 17.249C118.426 19.6866 119.557 21.9446 121.31 23.6727C123.064 25.4008 125.342 26.5022 127.792 26.8062C130.242 27.1102 132.292 26.8843 134.425 25.6386L129.647 17.3198C129.322 17.4404 129.309 17.4282 128.961 17.3851C128.614 17.342 128.338 17.088 128.09 16.8431C127.841 16.5981 127.681 16.278 127.634 15.9325C127.587 15.587 127.655 15.2353 127.829 14.9321C128.003 14.6288 128.273 14.3909 128.595 14.2554C128.918 14.1198 129.277 14.0941 129.615 14.1822C129.954 14.2704 130.253 14.4674 130.467 14.7429C130.682 15.0183 130.798 15.3567 130.799 15.7055L140.426 15.6473Z" fill="#223658"/>
<path d="M137.926 15.7923C137.926 20.5736 134.05 24.4496 129.269 24.4496C124.488 24.4496 120.612 20.5736 120.612 15.7923C120.612 11.011 124.488 7.13502 129.269 7.13502C134.05 7.13502 137.926 11.011 137.926 15.7923Z" fill="white"/>
<path d="M49.6311 23.0879C45.553 20.5919 44.2704 15.2625 46.7664 11.1844C49.2624 7.10634 54.5918 5.82379 58.6699 8.31978C62.7479 10.8158 64.0305 16.1451 61.5345 20.2232C59.0385 24.3013 53.7092 25.5839 49.6311 23.0879Z" fill="white"/>
<path d="M144.31 0C145.018 0 145.592 0.574224 145.592 1.28257V25.6513C145.592 26.3596 145.018 26.9339 144.31 26.9339C143.601 26.9339 143.027 26.3596 143.027 25.6513V1.28257C143.027 0.574224 143.601 0 144.31 0Z" fill="#223658"/>
<path d="M114.138 0C114.846 0 115.42 0.574224 115.42 1.28257V16.4168C115.42 17.1252 114.846 17.6994 114.138 17.6994C113.429 17.6994 112.855 17.1252 112.855 16.4168V1.28256C112.855 0.574224 113.429 0 114.138 0Z" fill="#223658"/>
<path d="M81.2245 25.639C80.9582 24.9915 81.2733 24.2512 81.9246 23.9943L83.5815 23.3405C84.241 23.0802 84.9849 23.4184 85.2223 24.0865C85.4482 24.722 85.1305 25.4223 84.5036 25.6711C83.93 25.8988 83.4197 26.1013 82.8482 26.3281C82.2096 26.5815 81.4859 26.2744 81.2245 25.639Z" fill="#223658"/>
<path d="M48.1832 24.1344C48.4029 23.4696 49.1241 23.1132 49.7857 23.3425L51.4688 23.9257C52.1386 24.1579 52.4828 24.899 52.2278 25.5605C51.9852 26.1899 51.2879 26.5143 50.6502 26.2947C50.0667 26.0938 49.5476 25.9151 48.9663 25.7149C48.3167 25.4912 47.9676 24.7868 48.1832 24.1344Z" fill="#223658"/>
<path d="M131.62 25.5883C131.327 24.9517 131.613 24.1991 132.254 23.9164L133.709 23.2742C134.356 22.9886 135.112 23.2952 135.377 23.9513C135.63 24.5778 135.341 25.2924 134.723 25.5664L133.269 26.2115C132.641 26.49 131.906 26.2123 131.62 25.5883Z" fill="#223658"/>
<path d="M42.9552 14.6854C42.9552 13.977 43.5294 13.4028 44.2378 13.4028C44.9461 13.4028 45.5203 13.977 45.5203 14.6854V30.7174C45.5203 31.4258 44.9461 32 44.2378 32C43.5294 32 42.9552 31.4258 42.9552 30.7174V14.6854Z" fill="#223658"/>
<path d="M106.667 5.86328C106.996 5.23612 107.771 4.99463 108.399 5.32389L109.656 5.98422C110.284 6.31349 110.525 7.08883 110.196 7.71599C109.867 8.34315 109.091 8.58464 108.464 8.25538L107.206 7.59505C106.579 7.26578 106.338 6.49044 106.667 5.86328Z" fill="#223658"/>
<path d="M22.4024 17.264C22.744 14.827 22.1996 12.5926 20.9808 10.4547C19.762 8.31687 17.868 6.64052 15.5926 5.68578C13.3173 4.73103 10.7879 4.55129 8.3968 5.17444C6.00573 5.79758 3.88671 7.18877 2.36852 9.13215C0.850332 11.0755 0.0178657 13.4625 0.000284306 15.9225C-0.0172971 18.3826 0.78099 20.7784 2.27128 22.738C3.76158 24.6977 5.86055 26.1117 8.24254 26.7606C10.6245 27.4095 12.6854 27.4771 14.9742 26.547L11.4258 17.6338C11.0868 17.707 11.0755 17.693 10.7379 17.601C10.4002 17.509 10.1633 17.2185 9.95208 16.9407C9.74083 16.6629 9.62768 16.3233 9.63017 15.9746C9.63266 15.6259 9.75066 15.2875 9.96586 15.0121C10.1811 14.7366 10.4814 14.5394 10.8204 14.4511C11.1593 14.3627 11.5178 14.3882 11.8404 14.5236C12.1629 14.6589 12.4314 14.8965 12.6041 15.1995C12.7769 15.5026 12.8443 15.8541 12.7959 16.1996L22.4024 17.264Z" fill="#223658"/>
<path d="M19.9306 16.0628C19.9306 20.8441 16.0546 24.7201 11.2733 24.7201C6.492 24.7201 2.61599 20.8441 2.61599 16.0628C2.61599 11.2815 6.492 7.40548 11.2733 7.40548C16.0546 7.40548 19.9306 11.2815 19.9306 16.0628Z" fill="white"/>
<path d="M12.829 26.037C12.5747 25.3854 12.9022 24.6515 13.5571 24.4056L15.6466 23.6212C16.3133 23.3709 17.0543 23.7258 17.2772 24.4021C17.4873 25.0397 17.1576 25.7297 16.5295 25.9668L14.4414 26.7549C13.7981 26.9977 13.0791 26.6776 12.829 26.037Z" fill="#223658"/>
<path d="M10.8637 18.4885C10.1554 18.4885 9.58117 17.9143 9.58117 17.2059C9.58117 16.4976 10.1554 15.9234 10.8637 15.9234H21.1243C21.8326 15.9234 22.4068 16.4976 22.4068 17.2059C22.4068 17.9143 21.8326 18.4885 21.1243 18.4885H10.8637Z" fill="#223658"/>
<path d="M75.0583 44C74.9063 44 74.7823 43.952 74.6863 43.856C74.5903 43.76 74.5423 43.636 74.5423 43.484V35.144C74.5423 34.992 74.5903 34.868 74.6863 34.772C74.7823 34.676 74.9063 34.628 75.0583 34.628H77.2783C77.8623 34.628 78.3823 34.752 78.8383 35C79.3023 35.248 79.6623 35.592 79.9183 36.032C80.1823 36.464 80.3143 36.968 80.3143 37.544C80.3143 38.088 80.1823 38.572 79.9183 38.996C79.6623 39.42 79.3023 39.752 78.8383 39.992C78.3823 40.232 77.8623 40.352 77.2783 40.352H75.5743V43.484C75.5743 43.636 75.5263 43.76 75.4303 43.856C75.3343 43.952 75.2103 44 75.0583 44ZM80.0623 44C79.9583 44 79.8703 43.98 79.7983 43.94C79.7263 43.892 79.6663 43.824 79.6183 43.736L77.3503 40.124L78.3703 39.86L80.4703 43.208C80.5983 43.408 80.6183 43.592 80.5303 43.76C80.4503 43.92 80.2943 44 80.0623 44ZM75.5743 39.368H77.2783C77.6703 39.368 78.0183 39.292 78.3223 39.14C78.6343 38.98 78.8783 38.764 79.0543 38.492C79.2303 38.212 79.3183 37.896 79.3183 37.544C79.3183 37.16 79.2303 36.824 79.0543 36.536C78.8783 36.24 78.6343 36.012 78.3223 35.852C78.0183 35.684 77.6703 35.6 77.2783 35.6H75.5743V39.368ZM83.8912 44C83.7392 44 83.6152 43.956 83.5192 43.868C83.4232 43.772 83.3752 43.644 83.3752 43.484V37.952C83.3752 37.792 83.4232 37.668 83.5192 37.58C83.6152 37.484 83.7392 37.436 83.8912 37.436C84.0432 37.436 84.1632 37.484 84.2512 37.58C84.3472 37.668 84.3952 37.792 84.3952 37.952V43.484C84.3952 43.644 84.3472 43.772 84.2512 43.868C84.1632 43.956 84.0432 44 83.8912 44ZM83.8792 36.248C83.6872 36.248 83.5232 36.18 83.3872 36.044C83.2512 35.9 83.1832 35.732 83.1832 35.54C83.1832 35.34 83.2512 35.176 83.3872 35.048C83.5312 34.92 83.6952 34.856 83.8792 34.856C84.0632 34.856 84.2232 34.92 84.3592 35.048C84.5032 35.176 84.5752 35.34 84.5752 35.54C84.5752 35.732 84.5072 35.9 84.3712 36.044C84.2352 36.18 84.0712 36.248 83.8792 36.248ZM91.0308 44.06C90.3988 44.06 89.8308 43.916 89.3268 43.628C88.8228 43.332 88.4228 42.932 88.1268 42.428C87.8388 41.924 87.6948 41.352 87.6948 40.712C87.6948 40.08 87.8348 39.512 88.1148 39.008C88.3948 38.504 88.7748 38.108 89.2548 37.82C89.7348 37.524 90.2788 37.376 90.8868 37.376C91.4068 37.376 91.8748 37.488 92.2908 37.712C92.7148 37.928 93.0588 38.216 93.3228 38.576V35.144C93.3228 34.984 93.3708 34.86 93.4668 34.772C93.5708 34.676 93.6948 34.628 93.8388 34.628C93.9908 34.628 94.1148 34.676 94.2108 34.772C94.3068 34.86 94.3548 34.984 94.3548 35.144V40.748C94.3388 41.372 94.1828 41.936 93.8868 42.44C93.5988 42.936 93.2068 43.332 92.7108 43.628C92.2148 43.916 91.6548 44.06 91.0308 44.06ZM91.0308 43.148C91.4788 43.148 91.8748 43.04 92.2188 42.824C92.5708 42.608 92.8468 42.32 93.0468 41.96C93.2548 41.592 93.3588 41.176 93.3588 40.712C93.3588 40.256 93.2548 39.844 93.0468 39.476C92.8468 39.108 92.5708 38.82 92.2188 38.612C91.8748 38.396 91.4788 38.288 91.0308 38.288C90.5908 38.288 90.1908 38.396 89.8308 38.612C89.4788 38.82 89.1988 39.108 88.9908 39.476C88.7828 39.844 88.6788 40.256 88.6788 40.712C88.6788 41.176 88.7828 41.592 88.9908 41.96C89.1988 42.32 89.4788 42.608 89.8308 42.824C90.1908 43.04 90.5908 43.148 91.0308 43.148ZM100.847 44.06C100.191 44.06 99.6115 43.92 99.1075 43.64C98.6035 43.352 98.2075 42.956 97.9195 42.452C97.6315 41.948 97.4875 41.372 97.4875 40.724C97.4875 40.068 97.6235 39.492 97.8955 38.996C98.1675 38.492 98.5395 38.096 99.0115 37.808C99.4915 37.52 100.043 37.376 100.667 37.376C101.275 37.376 101.803 37.516 102.251 37.796C102.707 38.068 103.055 38.448 103.295 38.936C103.543 39.424 103.667 39.98 103.667 40.604C103.667 40.74 103.623 40.852 103.535 40.94C103.447 41.02 103.335 41.06 103.199 41.06H98.1835V40.232H103.259L102.743 40.592C102.751 40.152 102.671 39.756 102.503 39.404C102.335 39.052 102.095 38.776 101.783 38.576C101.471 38.376 101.099 38.276 100.667 38.276C100.211 38.276 99.8115 38.38 99.4675 38.588C99.1315 38.796 98.8715 39.088 98.6875 39.464C98.5115 39.832 98.4235 40.252 98.4235 40.724C98.4235 41.196 98.5275 41.616 98.7355 41.984C98.9435 42.352 99.2275 42.64 99.5875 42.848C99.9555 43.056 100.375 43.16 100.847 43.16C101.119 43.16 101.395 43.112 101.675 43.016C101.963 42.92 102.191 42.8 102.359 42.656C102.455 42.584 102.563 42.548 102.683 42.548C102.811 42.54 102.915 42.572 102.995 42.644C103.115 42.748 103.175 42.86 103.175 42.98C103.183 43.1 103.131 43.204 103.019 43.292C102.755 43.516 102.419 43.7 102.011 43.844C101.603 43.988 101.215 44.06 100.847 44.06ZM108.866 44.06C108.37 44.06 107.886 43.98 107.414 43.82C106.95 43.652 106.578 43.416 106.298 43.112C106.202 43.008 106.162 42.888 106.178 42.752C106.194 42.616 106.258 42.504 106.37 42.416C106.498 42.32 106.626 42.28 106.754 42.296C106.89 42.312 107.002 42.368 107.09 42.464C107.266 42.672 107.51 42.84 107.822 42.968C108.134 43.088 108.478 43.148 108.854 43.148C109.406 43.148 109.81 43.056 110.066 42.872C110.33 42.68 110.466 42.444 110.474 42.164C110.474 41.892 110.342 41.664 110.078 41.48C109.822 41.296 109.382 41.152 108.758 41.048C107.95 40.912 107.358 40.684 106.982 40.364C106.614 40.044 106.43 39.66 106.43 39.212C106.43 38.804 106.542 38.464 106.766 38.192C106.99 37.92 107.282 37.716 107.642 37.58C108.01 37.444 108.406 37.376 108.83 37.376C109.366 37.376 109.83 37.468 110.222 37.652C110.614 37.828 110.93 38.068 111.17 38.372C111.258 38.484 111.294 38.604 111.278 38.732C111.27 38.852 111.206 38.948 111.086 39.02C110.982 39.092 110.858 39.116 110.714 39.092C110.578 39.068 110.462 39.004 110.366 38.9C110.166 38.684 109.938 38.528 109.682 38.432C109.426 38.328 109.134 38.276 108.806 38.276C108.39 38.276 108.054 38.36 107.798 38.528C107.542 38.688 107.414 38.896 107.414 39.152C107.414 39.328 107.458 39.48 107.546 39.608C107.642 39.736 107.806 39.852 108.038 39.956C108.278 40.052 108.618 40.14 109.058 40.22C109.658 40.324 110.13 40.472 110.474 40.664C110.826 40.848 111.074 41.064 111.218 41.312C111.37 41.56 111.446 41.836 111.446 42.14C111.446 42.516 111.338 42.848 111.122 43.136C110.914 43.416 110.618 43.64 110.234 43.808C109.85 43.976 109.394 44.06 108.866 44.06ZM114.866 41.408C114.706 41.408 114.578 41.36 114.482 41.264C114.394 41.168 114.35 41.048 114.35 40.904V35.144C114.35 34.984 114.394 34.86 114.482 34.772C114.578 34.676 114.706 34.628 114.866 34.628C115.018 34.628 115.138 34.676 115.226 34.772C115.322 34.86 115.37 34.984 115.37 35.144V40.904C115.37 41.048 115.322 41.168 115.226 41.264C115.138 41.36 115.018 41.408 114.866 41.408ZM119.954 44C119.802 44 119.678 43.952 119.582 43.856C119.486 43.76 119.438 43.64 119.438 43.496V40.436C119.438 39.948 119.346 39.552 119.162 39.248C118.986 38.936 118.742 38.704 118.43 38.552C118.118 38.392 117.762 38.312 117.362 38.312C116.986 38.312 116.646 38.388 116.342 38.54C116.046 38.684 115.81 38.884 115.634 39.14C115.458 39.388 115.37 39.676 115.37 40.004H114.674C114.69 39.5 114.822 39.052 115.07 38.66C115.326 38.26 115.666 37.944 116.09 37.712C116.514 37.48 116.986 37.364 117.506 37.364C118.066 37.364 118.566 37.484 119.006 37.724C119.454 37.956 119.806 38.3 120.062 38.756C120.326 39.212 120.458 39.772 120.458 40.436V43.496C120.458 43.64 120.41 43.76 120.314 43.856C120.218 43.952 120.098 44 119.954 44ZM114.866 44C114.706 44 114.578 43.956 114.482 43.868C114.394 43.772 114.35 43.648 114.35 43.496V37.952C114.35 37.792 114.394 37.668 114.482 37.58C114.578 37.484 114.706 37.436 114.866 37.436C115.018 37.436 115.138 37.484 115.226 37.58C115.322 37.668 115.37 37.792 115.37 37.952V43.496C115.37 43.648 115.322 43.772 115.226 43.868C115.138 43.956 115.018 44 114.866 44ZM126.659 44.06C126.051 44.06 125.507 43.916 125.027 43.628C124.547 43.332 124.167 42.932 123.887 42.428C123.607 41.924 123.467 41.356 123.467 40.724C123.467 40.084 123.611 39.512 123.899 39.008C124.195 38.504 124.595 38.108 125.099 37.82C125.603 37.524 126.171 37.376 126.803 37.376C127.427 37.376 127.987 37.524 128.483 37.82C128.987 38.108 129.383 38.504 129.671 39.008C129.967 39.512 130.119 40.084 130.127 40.724L129.719 40.928C129.719 41.52 129.583 42.052 129.311 42.524C129.047 42.996 128.683 43.372 128.219 43.652C127.763 43.924 127.243 44.06 126.659 44.06ZM126.803 43.148C127.251 43.148 127.647 43.044 127.991 42.836C128.343 42.62 128.619 42.328 128.819 41.96C129.027 41.592 129.131 41.18 129.131 40.724C129.131 40.26 129.027 39.848 128.819 39.488C128.619 39.12 128.343 38.828 127.991 38.612C127.647 38.396 127.251 38.288 126.803 38.288C126.363 38.288 125.963 38.396 125.603 38.612C125.251 38.828 124.971 39.12 124.763 39.488C124.555 39.848 124.451 40.26 124.451 40.724C124.451 41.18 124.555 41.592 124.763 41.96C124.971 42.328 125.251 42.62 125.603 42.836C125.963 43.044 126.363 43.148 126.803 43.148ZM129.611 44C129.467 44 129.343 43.956 129.239 43.868C129.143 43.772 129.095 43.648 129.095 43.496V41.516L129.323 40.472L130.127 40.724V43.496C130.127 43.648 130.079 43.772 129.983 43.868C129.887 43.956 129.763 44 129.611 44ZM133.688 39.932C133.704 39.444 133.828 39.008 134.06 38.624C134.3 38.232 134.612 37.924 134.996 37.7C135.388 37.476 135.816 37.364 136.28 37.364C136.688 37.364 136.996 37.424 137.204 37.544C137.42 37.664 137.5 37.828 137.444 38.036C137.42 38.148 137.368 38.228 137.288 38.276C137.216 38.324 137.128 38.348 137.024 38.348C136.928 38.348 136.816 38.34 136.688 38.324C136.216 38.268 135.796 38.3 135.428 38.42C135.068 38.532 134.78 38.72 134.564 38.984C134.348 39.248 134.24 39.564 134.24 39.932H133.688ZM133.748 44C133.588 44 133.464 43.956 133.376 43.868C133.288 43.78 133.244 43.656 133.244 43.496V37.94C133.244 37.78 133.288 37.656 133.376 37.568C133.464 37.48 133.588 37.436 133.748 37.436C133.908 37.436 134.028 37.48 134.108 37.568C134.196 37.656 134.24 37.78 134.24 37.94V43.496C134.24 43.656 134.196 43.78 134.108 43.868C134.028 43.956 133.908 44 133.748 44ZM142.697 44.06C142.041 44.06 141.461 43.92 140.957 43.64C140.453 43.352 140.057 42.956 139.769 42.452C139.481 41.948 139.337 41.372 139.337 40.724C139.337 40.068 139.473 39.492 139.745 38.996C140.017 38.492 140.389 38.096 140.861 37.808C141.341 37.52 141.893 37.376 142.517 37.376C143.125 37.376 143.653 37.516 144.101 37.796C144.557 38.068 144.905 38.448 145.145 38.936C145.393 39.424 145.517 39.98 145.517 40.604C145.517 40.74 145.473 40.852 145.385 40.94C145.297 41.02 145.185 41.06 145.049 41.06H140.033V40.232H145.109L144.593 40.592C144.601 40.152 144.521 39.756 144.353 39.404C144.185 39.052 143.945 38.776 143.633 38.576C143.321 38.376 142.949 38.276 142.517 38.276C142.061 38.276 141.661 38.38 141.317 38.588C140.981 38.796 140.721 39.088 140.537 39.464C140.361 39.832 140.273 40.252 140.273 40.724C140.273 41.196 140.377 41.616 140.585 41.984C140.793 42.352 141.077 42.64 141.437 42.848C141.805 43.056 142.225 43.16 142.697 43.16C142.969 43.16 143.245 43.112 143.525 43.016C143.813 42.92 144.041 42.8 144.209 42.656C144.305 42.584 144.413 42.548 144.533 42.548C144.661 42.54 144.765 42.572 144.845 42.644C144.965 42.748 145.025 42.86 145.025 42.98C145.033 43.1 144.981 43.204 144.869 43.292C144.605 43.516 144.269 43.7 143.861 43.844C143.453 43.988 143.065 44.06 142.697 44.06Z" fill="#EB6148"/>
</svg>
